<svg xmlns="http://www.w3.org/2000/svg" viewBox="0 0 256 256">
  <defs>
    <linearGradient id="bg" x1="0" x2="1" y1="0" y2="1">
      <stop offset="0%" stop-color="#2f2230"/>
      <stop offset="100%" stop-color="#19221c"/>
    </linearGradient>
  </defs>
  <rect x="12" y="12" width="232" height="232" rx="52" fill="url(#bg)"/>
  <circle cx="128" cy="128" r="88" fill="#2a3a33" opacity=".85"/>
  <g fill="#e8ad96" stroke="#bb6d58" stroke-width="8">
    <path d="M128 54c18 0 30 18 30 40s-12 40-30 48c-18-8-30-26-30-48s12-40 30-40Z"/>
    <path d="M198 106c14 8 18 28 8 46-10 18-30 28-48 22-4-16 4-36 18-50 10-10 16-14 22-18Z"/>
    <path d="M176 188c0 20-20 32-48 32s-48-12-48-32c10-18 28-28 48-28s38 10 48 28Z"/>
    <path d="M58 106c6 4 12 8 22 18 14 14 22 34 18 50-18 6-38-4-48-22-10-18-6-38 8-46Z"/>
  </g>
  <circle cx="128" cy="128" r="20" fill="#fff0df" stroke="#c68269" stroke-width="6"/>
  <rect x="22" y="22" width="212" height="212" rx="42" fill="none" stroke="#f0d68a" stroke-opacity=".28" stroke-width="4"/>
</svg>
