<svg xmlns="http://www.w3.org/2000/svg" viewBox="0 0 256 256">
  <defs>
    <linearGradient id="bg" x1="0" x2="1" y1="0" y2="1">
      <stop offset="0%" stop-color="#183226"/>
      <stop offset="100%" stop-color="#0f211a"/>
    </linearGradient>
  </defs>
  <rect x="12" y="12" width="232" height="232" rx="52" fill="url(#bg)"/>
  <circle cx="128" cy="128" r="88" fill="#203d30"/>
  <path d="M68 164c30 0 36-44 60-44 26 0 28 44 60 44" fill="none" stroke="#dbefda" stroke-linecap="round" stroke-width="12"/>
  <path d="M62 92c22 0 40 18 40 40s-18 40-40 40-40-18-40-40 18-40 40-40Zm132 0c22 0 40 18 40 40s-18 40-40 40-40-18-40-40 18-40 40-40Z" fill="none" stroke="#2b6e47" stroke-width="8"/>
  <path d="M58 128c24-8 44-30 48-58 26 6 42 20 48 48-18 22-42 32-96 10Zm140 0c-24-8-44-30-48-58-26 6-42 20-48 48 18 22 42 32 96 10Z" fill="#78bf74"/>
  <rect x="22" y="22" width="212" height="212" rx="42" fill="none" stroke="#f0d68a" stroke-opacity=".28" stroke-width="4"/>
</svg>
