<svg xmlns="http://www.w3.org/2000/svg" viewBox="0 0 256 256">
  <defs>
    <linearGradient id="bg" x1="0" x2="1" y1="0" y2="1">
      <stop offset="0%" stop-color="#3a2c16"/>
      <stop offset="100%" stop-color="#17231d"/>
    </linearGradient>
    <radialGradient id="glass" cx="50%" cy="42%" r="45%">
      <stop offset="0%" stop-color="#fff2bf"/>
      <stop offset="58%" stop-color="#efc96a"/>
      <stop offset="100%" stop-color="#9a6e2a"/>
    </radialGradient>
  </defs>
  <rect x="12" y="12" width="232" height="232" rx="52" fill="url(#bg)"/>
  <circle cx="128" cy="128" r="92" fill="#182820" opacity=".5"/>
  <path d="M94 64h68" stroke="#8d6728" stroke-linecap="round" stroke-width="10"/>
  <path d="M106 64c0-18 8-28 22-28s22 10 22 28" fill="none" stroke="#9c7634" stroke-width="8"/>
  <path d="M84 88h88l-8 92c-2 21-16 34-36 34s-34-13-36-34l-8-92Z" fill="#8e6728" stroke="#f0d48a" stroke-width="6"/>
  <rect x="104" y="104" width="48" height="62" rx="20" fill="url(#glass)"/>
  <path d="M100 206h56" stroke="#8d6728" stroke-linecap="round" stroke-width="10"/>
  <rect x="22" y="22" width="212" height="212" rx="42" fill="none" stroke="#f0d68a" stroke-opacity=".35" stroke-width="4"/>
</svg>
