<svg xmlns="http://www.w3.org/2000/svg" viewBox="0 0 256 256">
  <defs>
    <linearGradient id="bg" x1="0" x2="1" y1="0" y2="1">
      <stop offset="0%" stop-color="#1e2f1b"/>
      <stop offset="100%" stop-color="#101c19"/>
    </linearGradient>
  </defs>
  <rect x="12" y="12" width="232" height="232" rx="52" fill="url(#bg)"/>
  <circle cx="128" cy="128" r="88" fill="#24382a"/>
  <path d="M166 52c-46 8-84 44-90 92-8 42 16 72 56 72 50 0 82-42 86-92 4-44-14-80-52-72Z" fill="#b7d277" stroke="#698436" stroke-width="8"/>
  <path d="M108 172c32-24 62-54 82-94" fill="none" stroke="#f3ffd0" stroke-linecap="round" stroke-width="8"/>
  <path d="M142 70c18 4 30 20 30 38" fill="none" stroke="#f3ffd0" stroke-linecap="round" stroke-width="6" opacity=".85"/>
  <circle cx="82" cy="74" r="14" fill="#f3ffd0" opacity=".85"/>
  <rect x="22" y="22" width="212" height="212" rx="42" fill="none" stroke="#f0d68a" stroke-opacity=".28" stroke-width="4"/>
</svg>
