<svg xmlns="http://www.w3.org/2000/svg" viewBox="0 0 256 256">
  <defs>
    <linearGradient id="bg" x1="0" x2="1" y1="0" y2="1">
      <stop offset="0%" stop-color="#3f4f3a"/>
      <stop offset="100%" stop-color="#151f1a"/>
    </linearGradient>
    <radialGradient id="halo" cx="50%" cy="42%" r="58%">
      <stop offset="0%" stop-color="#ffe7dc" stop-opacity=".9"/>
      <stop offset="48%" stop-color="#efad9d" stop-opacity=".42"/>
      <stop offset="100%" stop-color="#0f1f17" stop-opacity="0"/>
    </radialGradient>
    <linearGradient id="petal" x1="0" x2="1">
      <stop offset="0%" stop-color="#ffe2d7"/>
      <stop offset="100%" stop-color="#dd806c"/>
    </linearGradient>
  </defs>
  <rect x="12" y="12" width="232" height="232" rx="52" fill="url(#bg)"/>
  <circle cx="128" cy="120" r="86" fill="url(#halo)"/>
  <g fill="url(#petal)" stroke="#a85f52" stroke-width="7" stroke-linejoin="round">
    <path d="M128 48c23 7 32 27 21 48 25-5 44 11 47 35-11 19-34 24-54 12 8 24-8 46-31 51-20-11-25-35-13-55-24 8-46-8-51-31 10-20 34-25 54-13-8-24 7-42 27-47Z"/>
    <path d="M128 84c21 9 28 33 13 50-15 16-41 10-50-12 9-20 30-31 37-38Z" opacity=".72"/>
    <path d="M140 111c8 16-2 34-19 37-14-8-18-27-7-39 10-3 18-2 26 2Z" opacity=".8"/>
  </g>
  <path d="M102 184c26-10 44-29 58-58" fill="none" stroke="#f7dacd" stroke-width="7" stroke-linecap="round" opacity=".7"/>
  <rect x="22" y="22" width="212" height="212" rx="42" fill="none" stroke="#f0d68a" stroke-opacity=".35" stroke-width="4"/>
</svg>
