<svg xmlns="http://www.w3.org/2000/svg" viewBox="0 0 256 256">
  <defs>
    <linearGradient id="bg" x1="0" x2="1" y1="0" y2="1">
      <stop offset="0%" stop-color="#36513c"/>
      <stop offset="100%" stop-color="#111d17"/>
    </linearGradient>
    <radialGradient id="halo" cx="50%" cy="42%" r="58%">
      <stop offset="0%" stop-color="#fff6c9" stop-opacity=".95"/>
      <stop offset="48%" stop-color="#f0c45f" stop-opacity=".48"/>
      <stop offset="100%" stop-color="#0f1f17" stop-opacity="0"/>
    </radialGradient>
    <linearGradient id="sun" x1="0" x2="1">
      <stop offset="0%" stop-color="#fff4bc"/>
      <stop offset="100%" stop-color="#d89c31"/>
    </linearGradient>
  </defs>
  <rect x="12" y="12" width="232" height="232" rx="52" fill="url(#bg)"/>
  <circle cx="128" cy="120" r="86" fill="url(#halo)"/>
  <g fill="url(#sun)" stroke="#7c5920" stroke-width="6" stroke-linejoin="round">
    <path d="M128 38l14 48 40-30-24 44 51 2-47 20 37 35-49-13 9 51-31-41-31 41 9-51-49 13 37-35-47-20 51-2-24-44 40 30 14-48Z"/>
    <circle cx="128" cy="121" r="43"/>
  </g>
  <circle cx="128" cy="121" r="23" fill="#fff0b0" opacity=".72"/>
  <rect x="22" y="22" width="212" height="212" rx="42" fill="none" stroke="#f0d68a" stroke-opacity=".35" stroke-width="4"/>
</svg>
